name ./resultDataOpenSim/trcMotMarkerGrf/sub09/grf-12-07.mot
datacolumns 19
datarows 17
range 0.47200000 0.53600000
endheader

                time	     ground_force_vx	     ground_force_vy	     ground_force_vz	     ground_force_px	     ground_force_py	     ground_force_pz	   l_ground_force_vx	   l_ground_force_vy	   l_ground_force_vz	   l_ground_force_px	   l_ground_force_py	   l_ground_force_pz	     ground_torque_x	     ground_torque_y	     ground_torque_z	   l_ground_torque_x	   l_ground_torque_y	   l_ground_torque_z	
          0.47200000	         15.65089263	        364.83524532	        -10.53222839	         -0.71538254	          0.00000000	          0.12954427	          0.00000000	          0.00000000	          0.00000000	          0.00000000	          0.00000000	          0.00000000	          0.00000000	          1.40699851	          0.00000000	          0.00000000	          0.00000000	          0.00000000	
          0.47600000	         19.15244075	        369.48431012	        -11.86455448	         -0.71523061	          0.00000000	          0.12983583	          0.00000000	          0.00000000	          0.00000000	          0.00000000	          0.00000000	          0.00000000	          0.00000000	          1.47882136	          0.00000000	          0.00000000	          0.00000000	          0.00000000	
          0.48000000	         22.18936166	        374.65917553	        -13.73206410	         -0.71495848	          0.00000000	          0.13009182	          0.00000000	          0.00000000	          0.00000000	          0.00000000	          0.00000000	          0.00000000	          0.00000000	          1.52527215	          0.00000000	          0.00000000	          0.00000000	          0.00000000	
          0.48400000	         25.03362484	        380.40397787	        -16.04976354	         -0.71461395	          0.00000000	          0.13030909	          0.00000000	          0.00000000	          0.00000000	          0.00000000	          0.00000000	          0.00000000	          0.00000000	          1.54564078	          0.00000000	          0.00000000	          0.00000000	          0.00000000	
          0.48800000	         28.05395665	        386.78629093	        -18.62532566	         -0.71425886	          0.00000000	          0.13049068	          0.00000000	          0.00000000	          0.00000000	          0.00000000	          0.00000000	          0.00000000	          0.00000000	          1.54960628	          0.00000000	          0.00000000	          0.00000000	          0.00000000	
          0.49200000	         31.59317755	        393.89941184	        -21.19370697	         -0.71393413	          0.00000000	          0.13063421	          0.00000000	          0.00000000	          0.00000000	          0.00000000	          0.00000000	          0.00000000	          0.00000000	          1.55809436	          0.00000000	          0.00000000	          0.00000000	          0.00000000	
          0.49600000	         35.86005249	        401.85288414	        -23.47054231	         -0.71364029	          0.00000000	          0.13072395	          0.00000000	          0.00000000	          0.00000000	          0.00000000	          0.00000000	          0.00000000	          0.00000000	          1.60101640	          0.00000000	          0.00000000	          0.00000000	          0.00000000	
          0.50000000	         40.85519901	        410.78079144	        -25.20752646	         -0.71336353	          0.00000000	          0.13072878	          0.00000000	          0.00000000	          0.00000000	          0.00000000	          0.00000000	          0.00000000	          0.00000000	          1.71175027	          0.00000000	          0.00000000	          0.00000000	          0.00000000	
          0.50400000	         46.35580757	        420.86398291	        -26.23168629	         -0.71311049	          0.00000000	          0.13058355	          0.00000000	          0.00000000	          0.00000000	          0.00000000	          0.00000000	          0.00000000	          0.00000000	          1.91908736	          0.00000000	          0.00000000	          0.00000000	          0.00000000	
          0.50800000	         51.99581342	        432.25881535	        -26.47387685	         -0.71290062	          0.00000000	          0.13024581	          0.00000000	          0.00000000	          0.00000000	          0.00000000	          0.00000000	          0.00000000	          0.00000000	          2.23843003	          0.00000000	          0.00000000	          0.00000000	          0.00000000	
          0.51200000	         57.39681726	        444.93294702	        -26.00492037	         -0.71264659	          0.00000000	          0.12977307	          0.00000000	          0.00000000	          0.00000000	          0.00000000	          0.00000000	          0.00000000	          0.00000000	          2.66486523	          0.00000000	          0.00000000	          0.00000000	          0.00000000	
          0.51600000	         62.26185852	        458.65854104	        -25.05920956	         -0.71211539	          0.00000000	          0.12931012	          0.00000000	          0.00000000	          0.00000000	          0.00000000	          0.00000000	          0.00000000	          0.00000000	          3.17057304	          0.00000000	          0.00000000	          0.00000000	          0.00000000	
          0.52000000	         66.43900727	        473.24600175	        -23.99719624	         -0.71114415	          0.00000000	          0.12894211	          0.00000000	          0.00000000	          0.00000000	          0.00000000	          0.00000000	          0.00000000	          0.00000000	          3.70770493	          0.00000000	          0.00000000	          0.00000000	          0.00000000	
          0.52400000	         69.98007265	        488.70646493	        -23.21169886	         -0.70982153	          0.00000000	          0.12863080	          0.00000000	          0.00000000	          0.00000000	          0.00000000	          0.00000000	          0.00000000	          0.00000000	          4.21623116	          0.00000000	          0.00000000	          0.00000000	          0.00000000	
          0.52800000	         73.12349011	        505.12060654	        -23.04571745	         -0.70838730	          0.00000000	          0.12830373	          0.00000000	          0.00000000	          0.00000000	          0.00000000	          0.00000000	          0.00000000	          0.00000000	          4.63513160	          0.00000000	          0.00000000	          0.00000000	          0.00000000	
          0.53200000	         76.16890904	        522.39343910	        -23.74600726	         -0.70699834	          0.00000000	          0.12795468	          0.00000000	          0.00000000	          0.00000000	          0.00000000	          0.00000000	          0.00000000	          0.00000000	          4.91474176	          0.00000000	          0.00000000	          0.00000000	          0.00000000	
          0.53600000	         79.34876497	        540.18121790	        -25.41482158	         -0.70559425	          0.00000000	          0.12764593	          0.00000000	          0.00000000	          0.00000000	          0.00000000	          0.00000000	          0.00000000	          0.00000000	          5.02772765	          0.00000000	          0.00000000	          0.00000000	          0.00000000	
